<svg width="504" height="161" viewBox="0 0 504 161" fill="none" xmlns="http://www.w3.org/2000/svg">
<g clip-path="url(#clip0_1881_11)">
<path d="M254.71 23.4096L240.21 30.7596C236.74 26.3696 231.33 23.9196 223.37 23.9196C211.21 23.9196 202.74 32.3896 202.74 43.9196C202.724 46.648 203.253 49.3521 204.297 51.8728C205.342 54.3935 206.879 56.6799 208.82 58.5975C210.761 60.515 213.066 62.0251 215.599 63.0387C218.132 64.0523 220.842 64.549 223.57 64.4996C231.02 64.4996 236.95 62.1596 240.57 58.6796V51.9396H219.5V39.0296H255.44V64.7596C254.93 65.7596 244 80.0796 223.68 80.0796C200.68 80.0796 185.9 62.8196 185.9 44.0796C185.9 24.7796 201.73 8.13963 223.58 8.13963C229.607 8.04338 235.57 9.37713 240.981 12.0315C246.393 14.6858 251.098 18.5852 254.71 23.4096ZM315.78 68.0296H282.29L277.69 78.8496H259.93L289.64 9.41963H308.33L338.14 78.8496H320.27L315.78 68.0296ZM309.96 54.3396L299.14 28.4096L288.14 54.3396H309.96ZM435.05 78.8496H418.2V43.4196L401.56 78.8496H382.87L366.23 43.4196V78.8496H349.5V9.41963H368.09L392.29 60.3696L416.39 9.41963H435.07L435.05 78.8496ZM503.68 9.41963V24.9396H467.22V36.8796H497.65V51.3796H467.22V63.3296H503.68V78.8496H450.5V9.41963H503.68Z" fill="#E36912"/>
<path d="M244.691 138.41C244.691 148.33 238.351 156.1 221.691 156.1H191.811V95.36H218.171C235.761 95.36 241.301 102.36 241.301 112.06C241.232 114.292 240.686 116.483 239.7 118.485C238.713 120.488 237.308 122.256 235.581 123.67C238.369 124.973 240.717 127.062 242.335 129.681C243.953 132.299 244.772 135.333 244.691 138.41ZM227.371 113.94C227.371 109.83 224.691 107.86 219.061 107.86H206.501V120.55H219.101C225.401 120.55 227.371 118.67 227.371 113.94ZM220.041 131.71H206.501V143.5H220.081C225.981 143.5 228.927 141.537 228.921 137.61C228.881 133.14 225.851 131.71 220.041 131.71ZM313.741 125.73C313.723 131.927 311.869 137.979 308.413 143.123C304.958 148.266 300.055 152.27 294.325 154.629C288.595 156.988 282.295 157.596 276.219 156.377C270.144 155.157 264.567 152.164 260.191 147.776C255.816 143.388 252.839 137.802 251.637 131.723C250.434 125.644 251.06 119.345 253.436 113.622C255.811 107.899 259.829 103.008 264.983 99.5673C270.136 96.1265 276.194 94.2901 282.391 94.29C290.712 94.3191 298.682 97.6438 304.558 103.536C310.434 109.429 313.735 117.409 313.741 125.73ZM264.441 125.73C264.423 129.265 265.454 132.725 267.403 135.674C269.352 138.623 272.132 140.927 275.391 142.296C278.65 143.665 282.242 144.036 285.712 143.363C289.182 142.69 292.375 141.003 294.886 138.516C297.397 136.028 299.115 132.852 299.82 129.388C300.526 125.925 300.189 122.33 298.852 119.058C297.514 115.786 295.236 112.984 292.306 111.007C289.376 109.03 285.925 107.966 282.391 107.95C277.654 107.931 273.103 109.793 269.737 113.127C266.372 116.46 264.467 120.993 264.441 125.73ZM382.171 125.73C382.155 131.929 380.302 137.985 376.846 143.132C373.39 148.279 368.486 152.286 362.754 154.647C357.022 157.008 350.718 157.617 344.64 156.397C338.562 155.177 332.981 152.183 328.604 147.793C324.227 143.403 321.249 137.814 320.046 131.733C318.844 125.651 319.471 119.349 321.848 113.624C324.226 107.898 328.247 103.006 333.403 99.5648C338.56 96.1236 344.621 94.2881 350.821 94.29C359.141 94.3218 367.11 97.6472 372.985 103.539C378.86 109.431 382.163 117.41 382.171 125.73ZM332.861 125.73C332.843 129.263 333.873 132.721 335.82 135.669C337.767 138.616 340.544 140.921 343.8 142.291C347.056 143.661 350.645 144.035 354.114 143.366C357.582 142.697 360.775 141.016 363.288 138.533C365.802 136.05 367.523 132.879 368.234 129.419C368.946 125.958 368.616 122.365 367.286 119.092C365.956 115.819 363.686 113.014 360.762 111.031C357.839 109.048 354.393 107.976 350.861 107.95C348.511 107.934 346.181 108.382 344.004 109.267C341.828 110.152 339.847 111.458 338.175 113.109C336.503 114.76 335.174 116.725 334.262 118.891C333.35 121.056 332.874 123.38 332.861 125.73ZM438.891 114.56H424.331C424.331 111.56 420.761 107.42 414.501 107.42C410.131 107.42 404.771 109.42 404.771 112.87C404.771 115.81 408.771 116.98 417.361 119.21C426.921 121.71 440.411 124.92 440.411 138.32C440.411 149.94 430.231 157.17 416.021 157.17C397.021 157.17 389.021 144.31 389.021 134.84H403.581C403.581 134.84 404.741 144.49 416.801 144.49C423.321 144.49 425.731 141.72 425.731 139.13C425.731 135.29 420.641 133.95 415.011 132.61C405.901 130.46 389.911 127.07 389.911 113.61C389.911 102.53 400.811 94.32 414.651 94.32C430.501 94.29 438.891 105.09 438.891 114.56ZM502.761 108.94H481.231V156.1H466.401V108.94H444.881V95.36H502.761V108.94Z" fill="white"/>
<path d="M40 0H121C131.609 0 141.783 4.21427 149.284 11.7157C156.786 19.2172 161 29.3913 161 40V149C160.979 152.19 159.697 155.242 157.434 157.49C155.171 159.738 152.11 161 148.92 161H40C29.3913 161 19.2172 156.786 11.7157 149.284C4.21427 141.783 0 131.609 0 121L0 40C0 29.3913 4.21427 19.2172 11.7157 11.7157C19.2172 4.21427 29.3913 0 40 0Z" fill="#E36912"/>
<path d="M119.191 70.0101C119.21 70.2452 119.19 70.4818 119.131 70.7101L113.951 91.4301C113.824 91.9379 113.533 92.3893 113.122 92.7133C112.711 93.0374 112.204 93.2156 111.681 93.2201L80.5908 93.3701H49.5008C48.9763 93.3719 48.4664 93.1974 48.0529 92.8746C47.6394 92.5518 47.3464 92.0994 47.2208 91.5901L42.0308 70.7801C41.9766 70.5476 41.9564 70.3084 41.9708 70.0701C40.9234 69.7395 40.0159 69.0693 39.392 68.1653C38.768 67.2613 38.4631 66.1751 38.5256 65.0784C38.588 63.9818 39.0141 62.9372 39.7366 62.1098C40.4591 61.2825 41.4367 60.7195 42.515 60.5099C43.5932 60.3003 44.7105 60.4561 45.6904 60.9525C46.6702 61.449 47.4566 62.2579 47.9253 63.2513C48.394 64.2447 48.5182 65.366 48.2784 66.4379C48.0385 67.5098 47.4482 68.4712 46.6008 69.1701L53.0808 75.7001C53.9695 76.5953 55.0403 77.2889 56.2205 77.734C57.4007 78.1791 58.6629 78.3653 59.9213 78.28C61.1798 78.1946 62.4052 77.8397 63.5146 77.2393C64.6239 76.6389 65.5912 75.8071 66.3508 74.8001L77.0108 60.6801C76.3036 59.9888 75.8173 59.1034 75.6133 58.1357C75.4094 57.168 75.497 56.1616 75.865 55.2437C76.2331 54.3258 76.865 53.5376 77.681 52.9789C78.497 52.4202 79.4604 52.116 80.4493 52.1048C81.4381 52.0936 82.4081 52.3759 83.2366 52.916C84.065 53.4561 84.7147 54.2298 85.1034 55.1391C85.4921 56.0485 85.6024 57.0527 85.4204 58.0247C85.2384 58.9968 84.7722 59.893 84.0808 60.6001L94.6609 74.7601C95.4837 75.8528 96.5484 76.7401 97.7716 77.3525C98.9947 77.965 100.343 78.2859 101.711 78.2901C102.866 78.294 104.01 78.0689 105.078 77.6278C106.146 77.1867 107.115 76.5383 107.931 75.7201L114.501 69.2001C113.645 68.514 113.041 67.5629 112.784 66.4963C112.527 65.4296 112.632 64.3079 113.082 63.3074C113.532 62.3068 114.302 61.4841 115.27 60.9684C116.239 60.4528 117.351 60.2735 118.432 60.4587C119.514 60.6439 120.503 61.183 121.244 61.9915C121.986 62.8 122.438 63.8319 122.529 64.9252C122.621 66.0184 122.346 67.1111 121.749 68.0315C121.152 68.9519 120.266 69.6479 119.231 70.0101H119.191ZM113.501 100.75C113.498 100.126 113.248 99.5282 112.806 99.0878C112.364 98.6474 111.765 98.4001 111.141 98.4001H50.1708C49.5476 98.4001 48.9499 98.6477 48.5091 99.0884C48.0684 99.5291 47.8208 100.127 47.8208 100.75V106.41C47.8208 107.033 48.0684 107.631 48.5091 108.072C48.9499 108.513 49.5476 108.76 50.1708 108.76H111.091C111.715 108.76 112.314 108.513 112.756 108.072C113.198 107.632 113.448 107.034 113.451 106.41L113.501 100.75Z" fill="white"/>
</g>
<defs>
<clipPath id="clip0_1881_11">
<rect width="503.68" height="161" fill="white"/>
</clipPath>
</defs>
</svg>
